<mxfile host="app.diagrams.net" modified="2022-05-19T11:42:52.456Z" agent="5.0 (Windows NT 10.0; Win64; x64) AppleWebKit/537.36 (KHTML, like Gecko) Chrome/101.0.4951.64 Safari/537.36 Edg/101.0.1210.47" etag="amP2H4CEFKubM5UC3IgG" version="18.0.6" type="github">
  <diagram id="C5RBs43oDa-KdzZeNtuy" name="Page-1">
    <mxGraphModel dx="527" dy="865" grid="1" gridSize="10" guides="1" tooltips="1" connect="1" arrows="1" fold="1" page="1" pageScale="1" pageWidth="827" pageHeight="1169" math="0" shadow="0">
      <root>
        <mxCell id="WIyWlLk6GJQsqaUBKTNV-0" />
        <mxCell id="WIyWlLk6GJQsqaUBKTNV-1" parent="WIyWlLk6GJQsqaUBKTNV-0" />
        <mxCell id="lXLz6fmwMa7co2SmInxg-6" style="edgeStyle=orthogonalEdgeStyle;rounded=0;orthogonalLoop=1;jettySize=auto;html=1;exitX=1;exitY=0.25;exitDx=0;exitDy=0;fontFamily=Helvetica;fontSize=19;entryX=0;entryY=0.25;entryDx=0;entryDy=0;" parent="WIyWlLk6GJQsqaUBKTNV-1" source="lXLz6fmwMa7co2SmInxg-2" target="lXLz6fmwMa7co2SmInxg-8" edge="1">
          <mxGeometry relative="1" as="geometry">
            <mxPoint x="400" y="505" as="targetPoint" />
          </mxGeometry>
        </mxCell>
        <mxCell id="lXLz6fmwMa7co2SmInxg-2" value="&lt;font style=&quot;font-size: 19px;&quot;&gt;Browser&lt;br&gt;浏览器&lt;/font&gt;" style="rounded=0;whiteSpace=wrap;html=1;fontFamily=Helvetica;fontSize=10.5;" parent="WIyWlLk6GJQsqaUBKTNV-1" vertex="1">
          <mxGeometry x="210" y="480" width="90" height="100" as="geometry" />
        </mxCell>
        <mxCell id="lXLz6fmwMa7co2SmInxg-15" style="edgeStyle=orthogonalEdgeStyle;rounded=0;orthogonalLoop=1;jettySize=auto;html=1;exitX=0;exitY=0.75;exitDx=0;exitDy=0;entryX=1;entryY=0.75;entryDx=0;entryDy=0;fontFamily=Helvetica;fontSize=19;" parent="WIyWlLk6GJQsqaUBKTNV-1" source="lXLz6fmwMa7co2SmInxg-8" target="lXLz6fmwMa7co2SmInxg-2" edge="1">
          <mxGeometry relative="1" as="geometry" />
        </mxCell>
        <mxCell id="lXLz6fmwMa7co2SmInxg-8" value="&lt;font style=&quot;font-size: 17px;&quot;&gt;&amp;nbsp;Web 服务器&lt;/font&gt;" style="rounded=0;whiteSpace=wrap;html=1;fontFamily=Helvetica;fontSize=10.5;" parent="WIyWlLk6GJQsqaUBKTNV-1" vertex="1">
          <mxGeometry x="369" y="480" width="90" height="100" as="geometry" />
        </mxCell>
        <mxCell id="lXLz6fmwMa7co2SmInxg-10" value="数据库" style="shape=cylinder3;whiteSpace=wrap;html=1;boundedLbl=1;backgroundOutline=1;size=15;fontFamily=Helvetica;fontSize=19;" parent="WIyWlLk6GJQsqaUBKTNV-1" vertex="1">
          <mxGeometry x="520" y="485" width="100" height="90" as="geometry" />
        </mxCell>
        <mxCell id="lXLz6fmwMa7co2SmInxg-12" value="" style="shape=flexArrow;endArrow=classic;startArrow=classic;html=1;rounded=0;fontFamily=Helvetica;fontSize=19;entryX=0;entryY=0.5;entryDx=0;entryDy=0;entryPerimeter=0;exitX=1;exitY=0.5;exitDx=0;exitDy=0;endWidth=10;endSize=4.87;width=14;startSize=4.87;startWidth=10;" parent="WIyWlLk6GJQsqaUBKTNV-1" source="lXLz6fmwMa7co2SmInxg-8" target="lXLz6fmwMa7co2SmInxg-10" edge="1">
          <mxGeometry width="100" height="100" relative="1" as="geometry">
            <mxPoint x="440" y="580" as="sourcePoint" />
            <mxPoint x="540" y="480" as="targetPoint" />
          </mxGeometry>
        </mxCell>
        <mxCell id="lXLz6fmwMa7co2SmInxg-13" value="HTTP" style="text;html=1;strokeColor=none;fillColor=none;align=center;verticalAlign=middle;whiteSpace=wrap;rounded=0;fontFamily=Helvetica;fontSize=19;" parent="WIyWlLk6GJQsqaUBKTNV-1" vertex="1">
          <mxGeometry x="300" y="480" width="60" height="30" as="geometry" />
        </mxCell>
        <mxCell id="lXLz6fmwMa7co2SmInxg-14" value="HTML" style="text;html=1;strokeColor=none;fillColor=none;align=center;verticalAlign=middle;whiteSpace=wrap;rounded=0;fontFamily=Helvetica;fontSize=19;" parent="WIyWlLk6GJQsqaUBKTNV-1" vertex="1">
          <mxGeometry x="300" y="555" width="60" height="30" as="geometry" />
        </mxCell>
      </root>
    </mxGraphModel>
  </diagram>
</mxfile>
